{
	"asset":{
		"copyright":"https://github.com/kazuma-0",
		"generator":"Khronos glTF Blender I/O v3.5.30",
		"version":"2.0"
	},
	"scene":0,
	"scenes":[
		{
			"name":"Scene",
			"nodes":[
				0
			]
		}
	],
	"nodes":[
		{
			"mesh":0,
			"name":"Retopo_Cylinder",
			"rotation":[
				0,
				0,
				-0.7071068286895752,
				0.7071068286895752
			],
			"scale":[
				11.835740089416504,
				11.835740089416504,
				11.835740089416504
			],
			"translation":[
				0,
				-0.12795457243919373,
				0
			]
		}
	],
	"materials":[
		{
			"doubleSided":true,
			"emissiveFactor":[
				1,
				1,
				1
			],
			"emissiveTexture":{
				"index":0
			},
			"name":"Material.001",
			"normalTexture":{
				"index":1
			},
			"pbrMetallicRoughness":{
				"baseColorTexture":{
					"index":2
				},
				"metallicRoughnessTexture":{
					"index":3
				}
			}
		},
		{
			"doubleSided":true,
			"emissiveFactor":[
				1,
				1,
				1
			],
			"emissiveTexture":{
				"index":4
			},
			"name":"Material.002",
			"normalTexture":{
				"index":5
			},
			"pbrMetallicRoughness":{
				"baseColorTexture":{
					"index":6
				},
				"metallicRoughnessTexture":{
					"index":7
				}
			}
		}
	],
	"meshes":[
		{
			"name":"mesh",
			"primitives":[
				{
					"attributes":{
						"POSITION":0,
						"TEXCOORD_0":1,
						"NORMAL":2
					},
					"indices":3,
					"material":0
				},
				{
					"attributes":{
						"POSITION":4,
						"TEXCOORD_0":5,
						"NORMAL":6
					},
					"indices":7,
					"material":1
				}
			]
		}
	],
	"textures":[
		{
			"sampler":0,
			"source":0
		},
		{
			"sampler":0,
			"source":1
		},
		{
			"sampler":0,
			"source":2
		},
		{
			"sampler":0,
			"source":3
		},
		{
			"sampler":0,
			"source":4
		},
		{
			"sampler":0,
			"source":5
		},
		{
			"sampler":0,
			"source":6
		},
		{
			"sampler":0,
			"source":7
		}
	],
	"images":[
		{
			"bufferView":4,
			"mimeType":"image/png",
			"name":"Material.001_Emission"
		},
		{
			"bufferView":5,
			"mimeType":"image/png",
			"name":"Material.001_Normal"
		},
		{
			"bufferView":6,
			"mimeType":"image/png",
			"name":"Material.001_BaseColor-Material.001_Alpha"
		},
		{
			"bufferView":7,
			"mimeType":"image/png",
			"name":"Material.001_Metallic-Material.001_Roughness"
		},
		{
			"bufferView":12,
			"mimeType":"image/png",
			"name":"Material.002_Emission"
		},
		{
			"bufferView":13,
			"mimeType":"image/png",
			"name":"Material.002_Normal"
		},
		{
			"bufferView":14,
			"mimeType":"image/png",
			"name":"Material.002_BaseColor-Material.002_Alpha"
		},
		{
			"bufferView":15,
			"mimeType":"image/png",
			"name":"Material.002_Metallic-Material.002_Roughness"
		}
	],
	"accessors":[
		{
			"bufferView":0,
			"componentType":5126,
			"count":8319,
			"max":[
				0.20617002248764038,
				0.5067541003227234,
				0.01809588260948658
			],
			"min":[
				-0.06638707220554352,
				-0.5111103057861328,
				-0.018098358064889908
			],
			"type":"VEC3"
		},
		{
			"bufferView":1,
			"componentType":5126,
			"count":8319,
			"type":"VEC2"
		},
		{
			"bufferView":2,
			"componentType":5126,
			"count":8319,
			"type":"VEC3"
		},
		{
			"bufferView":3,
			"componentType":5123,
			"count":47886,
			"type":"SCALAR"
		},
		{
			"bufferView":8,
			"componentType":5126,
			"count":1000,
			"max":[
				0.27039724588394165,
				0.5782788395881653,
				0.018342075869441032
			],
			"min":[
				0.15725857019424438,
				0.46597275137901306,
				-0.018358606845140457
			],
			"type":"VEC3"
		},
		{
			"bufferView":9,
			"componentType":5126,
			"count":1000,
			"type":"VEC2"
		},
		{
			"bufferView":10,
			"componentType":5126,
			"count":1000,
			"type":"VEC3"
		},
		{
			"bufferView":11,
			"componentType":5123,
			"count":5412,
			"type":"SCALAR"
		}
	],
	"bufferViews":[
		{
			"buffer":0,
			"byteLength":99828,
			"byteOffset":0,
			"target":34962
		},
		{
			"buffer":0,
			"byteLength":66552,
			"byteOffset":99828,
			"target":34962
		},
		{
			"buffer":0,
			"byteLength":99828,
			"byteOffset":166380,
			"target":34962
		},
		{
			"buffer":0,
			"byteLength":95772,
			"byteOffset":266208,
			"target":34963
		},
		{
			"buffer":0,
			"byteLength":3150,
			"byteOffset":361980
		},
		{
			"buffer":0,
			"byteLength":423974,
			"byteOffset":365132
		},
		{
			"buffer":0,
			"byteLength":564023,
			"byteOffset":789108
		},
		{
			"buffer":0,
			"byteLength":574835,
			"byteOffset":1353132
		},
		{
			"buffer":0,
			"byteLength":12000,
			"byteOffset":1927968,
			"target":34962
		},
		{
			"buffer":0,
			"byteLength":8000,
			"byteOffset":1939968,
			"target":34962
		},
		{
			"buffer":0,
			"byteLength":12000,
			"byteOffset":1947968,
			"target":34962
		},
		{
			"buffer":0,
			"byteLength":10824,
			"byteOffset":1959968,
			"target":34963
		},
		{
			"buffer":0,
			"byteLength":3150,
			"byteOffset":1970792
		},
		{
			"buffer":0,
			"byteLength":74921,
			"byteOffset":1973944
		},
		{
			"buffer":0,
			"byteLength":123983,
			"byteOffset":2048868
		},
		{
			"buffer":0,
			"byteLength":111929,
			"byteOffset":2172852
		}
	],
	"samplers":[
		{
			"magFilter":9729,
			"minFilter":9987
		}
	],
	"buffers":[
		{
			"byteLength":2284784,
			"uri":"data:application/octet-stream;base64,"
		}
	]
}
